<svg xmlns="http://www.w3.org/2000/svg" width="48" height="48" fill="none"><style>@media (prefers-color-scheme:dark){path{fill:&quot;#ffffff&quot;}}</style><path fill="#8B5CF6" d="M24 36.966 13.994 31.49v-8.643l-5.718-3.17L24 11.034l15.724 8.644v11.525h-2.859v-9.94l-2.859 1.584v8.644L24 36.965m0-11.958 9.792-5.33L24 14.348l-9.792 5.33L24 25.008m0 8.68 7.147-3.89V24.36L24 28.322l-7.147-3.962v5.438zM0 48V34.667h5.333v8h8V48zm34.667 0v-5.333h8v-8H48V48zM0 13.333V0h13.333v5.333h-8v8zm42.667 0v-8h-8V0H48v13.333z"/></svg>